<svg width="1247" height="218" viewBox="0 0 1247 218" fill="none" xmlns="http://www.w3.org/2000/svg">
<path d="M154.297 116.555C154.297 122.349 153.581 127.525 152.148 132.082C150.716 136.639 148.763 140.676 146.289 144.191C143.88 147.642 141.081 150.604 137.891 153.078C134.701 155.552 131.348 157.57 127.832 159.133C124.382 160.695 120.866 161.835 117.285 162.551C113.77 163.267 110.449 163.625 107.324 163.625H49.9023V138.234H107.324C110.579 137.974 113.509 137.323 116.113 136.281C118.783 135.174 121.061 133.71 122.949 131.887C124.837 130.064 126.302 127.883 127.344 125.344C128.385 122.74 128.906 119.81 128.906 116.555V105.031C128.581 101.841 127.897 98.9115 126.855 96.2422C125.814 93.5729 124.382 91.2943 122.559 89.4062C120.801 87.5182 118.652 86.0534 116.113 85.0117C113.574 83.9049 110.645 83.3516 107.324 83.3516H50.0977C46.7122 83.3516 44.1406 84.2305 42.3828 85.9883C40.625 87.7461 39.7461 90.2852 39.7461 93.6055V198H14.3555V93.6055C14.3555 87.0951 15.5273 81.5612 17.8711 77.0039C20.2799 72.4466 23.2422 68.7682 26.7578 65.9688C30.3385 63.1693 34.2122 61.151 38.3789 59.9141C42.5456 58.612 46.3867 57.9609 49.9023 57.9609H107.324C113.053 57.9609 118.197 58.7096 122.754 60.207C127.311 61.6393 131.315 63.5924 134.766 66.0664C138.281 68.4753 141.243 71.2747 143.652 74.4648C146.126 77.6549 148.145 81.0078 149.707 84.5234C151.335 87.974 152.507 91.4896 153.223 95.0703C153.939 98.5859 154.297 101.906 154.297 105.031V116.555ZM316.016 105.031C316.016 110.826 315.299 116.001 313.867 120.559C312.435 125.116 310.482 129.152 308.008 132.668C305.599 136.118 302.799 139.081 299.609 141.555C296.419 144.029 293.066 146.079 289.551 147.707C286.1 149.27 282.585 150.409 279.004 151.125C275.488 151.841 272.168 152.199 269.043 152.199L322.07 198H282.812L229.883 152.199H211.621V126.809H269.043C272.233 126.548 275.13 125.897 277.734 124.855C280.404 123.749 282.682 122.284 284.57 120.461C286.523 118.638 288.021 116.457 289.062 113.918C290.104 111.314 290.625 108.352 290.625 105.031V89.0156C290.625 87.5833 290.43 86.5091 290.039 85.793C289.714 85.0117 289.258 84.4583 288.672 84.1328C288.151 83.7422 287.565 83.5143 286.914 83.4492C286.328 83.3841 285.775 83.3516 285.254 83.3516H201.465V198H176.074V70.7539C176.074 68.9961 176.4 67.3359 177.051 65.7734C177.702 64.2109 178.581 62.8438 179.688 61.6719C180.859 60.5 182.227 59.5885 183.789 58.9375C185.352 58.2865 187.044 57.9609 188.867 57.9609H285.254C290.918 57.9609 295.703 59.0026 299.609 61.0859C303.516 63.1042 306.673 65.6758 309.082 68.8008C311.556 71.8607 313.314 75.181 314.355 78.7617C315.462 82.3424 316.016 85.6953 316.016 88.8203V105.031ZM870.117 116.555C870.117 122.349 869.401 127.525 867.969 132.082C866.536 136.639 864.583 140.676 862.109 144.191C859.701 147.642 856.901 150.604 853.711 153.078C850.521 155.552 847.168 157.57 843.652 159.133C840.202 160.695 836.686 161.835 833.105 162.551C829.59 163.267 826.27 163.625 823.145 163.625H765.723V138.234H823.145C826.4 137.974 829.329 137.323 831.934 136.281C834.603 135.174 836.882 133.71 838.77 131.887C840.658 130.064 842.122 127.883 843.164 125.344C844.206 122.74 844.727 119.81 844.727 116.555V105.031C844.401 101.841 843.717 98.9115 842.676 96.2422C841.634 93.5729 840.202 91.2943 838.379 89.4062C836.621 87.5182 834.473 86.0534 831.934 85.0117C829.395 83.9049 826.465 83.3516 823.145 83.3516H765.918C762.533 83.3516 759.961 84.2305 758.203 85.9883C756.445 87.7461 755.566 90.2852 755.566 93.6055V198H730.176V93.6055C730.176 87.0951 731.348 81.5612 733.691 77.0039C736.1 72.4466 739.062 68.7682 742.578 65.9688C746.159 63.1693 750.033 61.151 754.199 59.9141C758.366 58.612 762.207 57.9609 765.723 57.9609H823.145C828.874 57.9609 834.017 58.7096 838.574 60.207C843.132 61.6393 847.135 63.5924 850.586 66.0664C854.102 68.4753 857.064 71.2747 859.473 74.4648C861.947 77.6549 863.965 81.0078 865.527 84.5234C867.155 87.974 868.327 91.4896 869.043 95.0703C869.759 98.5859 870.117 101.906 870.117 105.031V116.555ZM904.785 185.207C904.785 186.965 904.427 188.625 903.711 190.188C903.06 191.685 902.148 193.02 900.977 194.191C899.87 195.298 898.535 196.177 896.973 196.828C895.475 197.479 893.88 197.805 892.188 197.805C890.43 197.805 888.77 197.479 887.207 196.828C885.71 196.177 884.375 195.298 883.203 194.191C882.096 193.02 881.217 191.685 880.566 190.188C879.915 188.625 879.59 186.965 879.59 185.207C879.59 183.514 879.915 181.919 880.566 180.422C881.217 178.859 882.096 177.525 883.203 176.418C884.375 175.246 885.71 174.335 887.207 173.684C888.77 172.967 890.43 172.609 892.188 172.609C893.88 172.609 895.475 172.967 896.973 173.684C898.535 174.335 899.87 175.246 900.977 176.418C902.148 177.525 903.06 178.859 903.711 180.422C904.427 181.919 904.785 183.514 904.785 185.207ZM1052.83 198H961.23C958.887 198 956.348 197.74 953.613 197.219C950.944 196.633 948.275 195.754 945.605 194.582C943.001 193.41 940.495 191.913 938.086 190.09C935.677 188.202 933.529 185.956 931.641 183.352C929.818 180.682 928.353 177.622 927.246 174.172C926.139 170.656 925.586 166.717 925.586 162.355V93.6055C925.586 91.2617 925.846 88.7552 926.367 86.0859C926.953 83.3516 927.832 80.6823 929.004 78.0781C930.176 75.4089 931.706 72.8698 933.594 70.4609C935.482 68.0521 937.728 65.9362 940.332 64.1133C943.001 62.2253 946.061 60.7279 949.512 59.6211C952.962 58.5143 956.868 57.9609 961.23 57.9609H1052.83V83.3516H961.23C957.91 83.3516 955.371 84.2305 953.613 85.9883C951.855 87.7461 950.977 90.3503 950.977 93.8008V162.355C950.977 165.611 951.855 168.15 953.613 169.973C955.436 171.73 957.975 172.609 961.23 172.609H1052.83V198ZM1221.68 141.359C1221.68 149.888 1220.21 157.733 1217.29 164.895C1214.36 172.056 1210.29 178.241 1205.08 183.449C1199.87 188.658 1193.68 192.727 1186.52 195.656C1179.43 198.521 1171.68 199.953 1163.28 199.953H1128.91C1120.51 199.953 1112.73 198.521 1105.57 195.656C1098.4 192.727 1092.22 188.658 1087.01 183.449C1081.8 178.241 1077.7 172.056 1074.71 164.895C1071.78 157.733 1070.31 149.888 1070.31 141.359V114.602C1070.31 106.138 1071.78 98.3255 1074.71 91.1641C1077.7 83.9375 1081.8 77.7526 1087.01 72.6094C1092.22 67.401 1098.4 63.332 1105.57 60.4023C1112.73 57.4727 1120.51 56.0078 1128.91 56.0078H1163.28C1171.68 56.0078 1179.43 57.4727 1186.52 60.4023C1193.68 63.332 1199.87 67.401 1205.08 72.6094C1210.29 77.7526 1214.36 83.9375 1217.29 91.1641C1220.21 98.3255 1221.68 106.138 1221.68 114.602V141.359ZM1196.29 114.602C1196.29 109.589 1195.48 105.064 1193.85 101.027C1192.29 96.9258 1190.04 93.4427 1187.11 90.5781C1184.24 87.6484 1180.76 85.4023 1176.66 83.8398C1172.62 82.2122 1168.16 81.3984 1163.28 81.3984H1128.91C1123.96 81.3984 1119.43 82.2122 1115.33 83.8398C1111.3 85.4023 1107.81 87.6484 1104.88 90.5781C1101.95 93.4427 1099.67 96.9258 1098.05 101.027C1096.48 105.064 1095.7 109.589 1095.7 114.602V141.359C1095.7 146.372 1096.48 150.93 1098.05 155.031C1099.67 159.068 1101.95 162.551 1104.88 165.48C1107.81 168.345 1111.3 170.591 1115.33 172.219C1119.43 173.781 1123.96 174.562 1128.91 174.562H1163.09C1168.03 174.562 1172.53 173.781 1176.56 172.219C1180.66 170.591 1184.18 168.345 1187.11 165.48C1190.04 162.551 1192.29 159.068 1193.85 155.031C1195.48 150.93 1196.29 146.372 1196.29 141.359V114.602Z" fill="white"/>
<path d="M514.501 214.5L496.968 191.068C504.251 183.503 508.567 174.588 514.501 165.402C524.481 172.966 539.538 185.093 539.538 185.093L514.501 214.5Z" fill="#B9A278"/>
<path fill-rule="evenodd" clip-rule="evenodd" d="M410.751 40.843L430.925 53.4494C409.509 57.5101 389.78 70.1564 377.316 90.1033C353.616 128.032 365.15 177.992 403.078 201.692C441.007 225.392 490.967 213.858 514.667 175.93C538.367 138.001 526.833 88.0413 488.905 64.341L422.138 22.6202L428.149 13L386.166 13.4342L404.795 50.3746L410.751 40.843ZM496.444 164.543C513.856 136.679 505.382 99.9753 477.518 82.5638C449.654 65.1523 412.95 73.6259 395.539 101.49C378.127 129.354 386.601 166.058 414.465 183.469C442.329 200.881 479.033 192.407 496.444 164.543Z" fill="#B9A278"/>
<path fill-rule="evenodd" clip-rule="evenodd" d="M622.535 44.0935L602.361 56.6998C623.777 60.7606 643.506 73.4069 655.97 93.3537C679.67 131.282 668.136 181.242 630.208 204.942C592.279 228.643 542.319 217.109 518.619 179.18C494.919 141.252 506.453 91.2918 544.381 67.5915L611.149 25.8707L605.137 16.2505L647.12 16.6847L628.491 53.6251L622.535 44.0935ZM536.842 167.793C519.43 139.929 527.904 103.226 555.768 85.8143C583.632 68.4028 620.336 76.8764 637.747 104.741C655.159 132.605 646.685 169.308 618.821 186.72C590.957 204.131 554.253 195.658 536.842 167.793Z" fill="#B9A278"/>
<circle cx="588.439" cy="135.076" r="30.0192" fill="#B9A278"/>
<circle cx="445.848" cy="135.076" r="30.0192" fill="#B9A278"/>
</svg>
